<?xml version="1.0" encoding="UTF-8"?>
<svg width="102px" height="26px" viewBox="0 0 102 26" version="1.1" xmlns="http://www.w3.org/2000/svg" xmlns:xlink="http://www.w3.org/1999/xlink">
    <!-- Generator: Sketch 46.2 (44496) - http://www.bohemiancoding.com/sketch -->
    <title>mailerlite-logo-grey</title>
    <desc>Created with Sketch.</desc>
    <defs></defs>
    <g id="Page-1" stroke="none" stroke-width="1" fill="none" fill-rule="evenodd">
        <g id="Artboard" transform="translate(-34.000000, -42.000000)" fill-rule="nonzero">
            <g id="mailerlite-logo-grey" transform="translate(34.000000, 42.000000)">
                <g id="Group" transform="translate(0.000000, 9.000000)" fill="#AEB3BD">
                    <path d="M13.2067138,4.72739726 C11.5300353,4.72739726 10.1978799,5.40273973 9.25618375,6.73013699 C8.704947,5.70547945 7.6024735,4.72739726 5.92579505,4.72739726 C4.20318021,4.72739726 3.19257951,5.49589041 2.48056537,6.3109589 L2.48056537,6.07808219 C2.48056537,5.40273973 1.92932862,4.84383562 1.26325088,4.84383562 C0.597173145,4.84383562 0.0689045936,5.40273973 0.0689045936,6.07808219 L0.0689045936,15.4630137 C0.0689045936,16.1383562 0.597173145,16.6739726 1.26325088,16.6739726 C1.92932862,16.6739726 2.48056537,16.1383562 2.48056537,15.4630137 L2.48056537,8.96575342 C3.03180212,8.05753425 3.85865724,7.03287671 5.35159011,7.03287671 C6.77561837,7.03287671 7.32685512,7.73150685 7.32685512,9.54794521 L7.32685512,15.4630137 C7.32685512,16.1383562 7.85512367,16.6739726 8.52120141,16.6739726 C9.18727915,16.6739726 9.7385159,16.1383562 9.7385159,15.4630137 L9.7385159,8.96575342 C10.2897527,8.05753425 11.1166078,7.03287671 12.6095406,7.03287671 C14.0335689,7.03287671 14.5848057,7.73150685 14.5848057,9.54794521 L14.5848057,15.4630137 C14.5848057,16.1383562 15.1130742,16.6739726 15.7791519,16.6739726 C16.4452297,16.6739726 16.9964664,16.1383562 16.9964664,15.4630137 L16.9964664,9.15205479 C17.0424028,7.00958904 15.8480565,4.72739726 13.2067138,4.72739726 Z" id="Shape"></path>
                    <path d="M24.7826855,4.72739726 C23.45053,4.72739726 22.2332155,4.98356164 20.9699647,5.54246575 C20.5335689,5.72876712 20.2579505,6.10136986 20.2579505,6.59041096 C20.2579505,7.19589041 20.7173145,7.66164384 21.2915194,7.66164384 C21.3833922,7.66164384 21.4982332,7.63835616 21.6360424,7.61506849 C22.4858657,7.33561644 23.2897527,7.10273973 24.4381625,7.10273973 C26.2985866,7.10273973 27.0795053,7.80136986 27.1024735,9.52465753 L24.7137809,9.52465753 C21.4522968,9.52465753 19.5229682,10.9452055 19.5229682,13.2972603 C19.5229682,15.6027397 21.4063604,16.8136986 23.2667845,16.8136986 C24.7597173,16.8136986 26.0459364,16.3479452 27.1024735,15.4630137 L27.1024735,15.4863014 C27.1024735,16.1616438 27.630742,16.6972603 28.2968198,16.6972603 C28.9628975,16.6972603 29.5141343,16.1616438 29.5141343,15.4863014 L29.5141343,9.29178082 C29.5141343,7.00958904 28.0441696,4.72739726 24.7826855,4.72739726 Z M24.0017668,14.5547945 C22.6466431,14.5547945 21.934629,14.0424658 21.934629,13.0410959 C21.934629,12.6684932 21.934629,11.5506849 24.9664311,11.5506849 L27.0795053,11.5506849 L27.0795053,13.0643836 C26.459364,13.7630137 25.2879859,14.5547945 24.0017668,14.5547945 Z" id="Shape"></path>
                    <path d="M34.245583,0.349315068 L34.1077739,0.349315068 C33.3727915,0.349315068 32.7756184,0.954794521 32.7756184,1.7 L32.7756184,1.79315068 C32.7756184,2.53835616 33.3727915,3.14383562 34.1077739,3.14383562 L34.245583,3.14383562 C34.9805654,3.14383562 35.5777385,2.53835616 35.5777385,1.79315068 L35.5777385,1.7 C35.5777385,0.954794521 34.9805654,0.349315068 34.245583,0.349315068 Z" id="Shape"></path>
                    <path d="M34.1766784,4.82054795 C33.5106007,4.82054795 32.9823322,5.35616438 32.9823322,6.05479452 L32.9823322,15.439726 C32.9823322,16.1150685 33.5106007,16.6506849 34.1766784,16.6506849 C34.8657244,16.6506849 35.3939929,16.1150685 35.3939929,15.439726 L35.3939929,6.05479452 C35.3939929,5.37945205 34.8657244,4.82054795 34.1766784,4.82054795 Z" id="Shape"></path>
                    <path d="M40.3091873,0 C39.6431095,0 39.114841,0.535616438 39.114841,1.23424658 L39.114841,15.439726 C39.114841,16.1150685 39.6431095,16.6506849 40.3091873,16.6506849 C40.9982332,16.6506849 41.5265018,16.1150685 41.5265018,15.439726 L41.5265018,1.23424658 C41.5265018,0.55890411 40.9982332,0 40.3091873,0 Z" id="Shape"></path>
                    <path d="M49.8869258,4.72739726 C48.164311,4.72739726 46.7402827,5.37945205 45.7756184,6.61369863 C44.9487633,7.68493151 44.4893993,9.15205479 44.4893993,10.7589041 C44.4893993,14.5315068 46.6713781,16.790411 50.3003534,16.790411 C52.2985866,16.790411 53.2862191,16.3246575 54.1819788,15.7890411 C54.6183746,15.5328767 54.8480565,15.160274 54.8480565,14.7876712 C54.8480565,14.1821918 54.3657244,13.6931507 53.745583,13.6931507 C53.5618375,13.6931507 53.4010601,13.7164384 53.2632509,13.809589 C52.6201413,14.1589041 51.8162544,14.4616438 50.4611307,14.4616438 C48.4399293,14.4616438 47.245583,13.5068493 46.9469965,11.690411 L53.9982332,11.690411 C54.7102473,11.690411 55.2155477,11.1780822 55.2155477,10.4794521 C55.2614841,6.52054795 52.4823322,4.72739726 49.8869258,4.72739726 Z M49.8869258,6.86986301 C50.8975265,6.86986301 52.5971731,7.45205479 52.8268551,9.59452055 L46.9469965,9.59452055 C47.1766784,7.70821918 48.5547703,6.86986301 49.8869258,6.86986301 Z" id="Shape"></path>
                    <path d="M63.6448763,4.72739726 L63.5300353,4.72739726 C62.3816254,4.72739726 61.3250883,5.28630137 60.360424,6.35753425 L60.360424,6.05479452 C60.360424,5.37945205 59.8091873,4.82054795 59.1431095,4.82054795 C58.4770318,4.82054795 57.9487633,5.37945205 57.9487633,6.05479452 L57.9487633,15.439726 C57.9487633,16.1150685 58.4770318,16.6506849 59.1431095,16.6506849 C59.8091873,16.6506849 60.360424,16.1150685 60.360424,15.439726 L60.360424,8.84931507 C61.1413428,7.70821918 62.2438163,7.07945205 63.4840989,7.07945205 L63.5989399,7.07945205 C64.3109541,7.07945205 64.8162544,6.59041096 64.8162544,5.91506849 C64.8162544,5.23972603 64.3109541,4.72739726 63.6448763,4.72739726 Z" id="Shape"></path>
                </g>
                <g id="Group" transform="translate(70.000000, 0.000000)">
                    <path d="M28.4262774,0.185714286 L3.57372263,0.185714286 C1.65839416,0.185714286 0.0700729927,1.76428571 0.0700729927,3.66785714 L0.0700729927,15.275 L0.0700729927,17.55 L0.0700729927,25.7910714 L4.90510949,21.0321429 L28.449635,21.0321429 C30.3649635,21.0321429 31.9532847,19.4535714 31.9532847,17.55 L31.9532847,3.66785714 C31.929927,1.74107143 30.3649635,0.185714286 28.4262774,0.185714286 Z" id="Shape" fill="#AEB3BD"></path>
                    <path d="M7.52116788,15.7857143 C7.52116788,16.2964286 7.10072993,16.6910714 6.58686131,16.6910714 C6.0729927,16.6910714 5.67591241,16.2732143 5.67591241,15.7857143 L5.67591241,5.91964286 C5.67591241,5.40892857 6.0729927,4.99107143 6.58686131,4.99107143 C7.10072993,4.99107143 7.52116788,5.40892857 7.52116788,5.91964286 L7.52116788,15.7857143 Z" id="Path" fill="#FFFFFF"></path>
                    <path d="M11.8656934,15.7857143 C11.8656934,16.2964286 11.4452555,16.6910714 10.9313869,16.6910714 C10.4175182,16.6910714 10.020438,16.2732143 10.020438,15.7857143 L10.020438,9.2625 C10.020438,8.75178571 10.4175182,8.33392857 10.9313869,8.33392857 C11.4452555,8.33392857 11.8656934,8.75178571 11.8656934,9.2625 L11.8656934,15.7857143 Z" id="Path" fill="#FFFFFF"></path>
                    <path d="M11.9824818,6.29107143 C11.9824818,6.84821429 11.5386861,7.28928571 10.9781022,7.28928571 L10.8846715,7.28928571 C10.3240876,7.28928571 9.88029197,6.84821429 9.88029197,6.29107143 L9.88029197,6.22142857 C9.88029197,5.66428571 10.3240876,5.22321429 10.8846715,5.22321429 L10.9781022,5.22321429 C11.5386861,5.22321429 11.9824818,5.66428571 11.9824818,6.22142857 L11.9824818,6.29107143 Z" id="Path" fill="#FFFFFF"></path>
                    <path d="M18.5693431,16.4821429 C18.1255474,16.6910714 17.6817518,16.7839286 17.1912409,16.7839286 C15.579562,16.7839286 14.7153285,16.0178571 14.7153285,14.5553571 L14.7153285,10.075 L13.8744526,10.075 C13.5708029,10.075 13.3605839,9.84285714 13.3605839,9.56428571 C13.3605839,9.40178571 13.4306569,9.23928571 13.5708029,9.12321429 L15.6262774,7.10357143 C15.6729927,7.05714286 15.8364964,6.89464286 16.0467153,6.89464286 C16.350365,6.89464286 16.5605839,7.12678571 16.5605839,7.42857143 L16.5605839,8.40357143 L18.0554745,8.40357143 C18.5226277,8.40357143 18.8963504,8.775 18.8963504,9.23928571 C18.8963504,9.70357143 18.5226277,10.075 18.0554745,10.075 L16.5839416,10.075 L16.5839416,14.4392857 C16.5839416,15.0660714 16.9109489,15.1125 17.3547445,15.1125 C17.6116788,15.1125 17.7518248,15.0660714 17.8919708,15.0428571 C18.0087591,15.0196429 18.1255474,14.9732143 18.2656934,14.9732143 C18.6394161,14.9732143 19.059854,15.275 19.059854,15.7625 C19.0364964,16.0642857 18.8729927,16.3428571 18.5693431,16.4821429 Z" id="Path" fill="#FFFFFF"></path>
                    <path d="M24.2919708,15.0428571 C25.249635,15.0428571 25.7868613,14.8339286 26.2540146,14.6017857 C26.3708029,14.5321429 26.4875912,14.5089286 26.6277372,14.5089286 C27.0948905,14.5089286 27.4686131,14.8803571 27.4686131,15.3446429 C27.4686131,15.6464286 27.2817518,15.925 26.9547445,16.1107143 C26.3007299,16.4821429 25.6,16.8071429 24.1518248,16.8071429 C21.5357664,16.8071429 19.9474453,15.2053571 19.9474453,12.5357143 C19.9474453,9.40178571 22.049635,8.26428571 23.8481752,8.26428571 C26.5109489,8.26428571 27.7255474,10.3767857 27.7255474,12.3267857 C27.7255474,12.8607143 27.3284672,13.2321429 26.7912409,13.2321429 L21.8861314,13.2321429 C22.119708,14.4160714 22.9605839,15.0428571 24.2919708,15.0428571 Z" id="Path" fill="#FFFFFF"></path>
                    <path d="M23.8715328,9.9125 C22.9839416,9.9125 22.049635,10.4464286 21.8861314,11.6767857 L25.880292,11.6767857 C25.6934307,10.4464286 24.7591241,9.9125 23.8715328,9.9125 Z" id="Shape" fill="#AEB3BD"></path>
                </g>
            </g>
        </g>
    </g>
</svg>